<svg id="titles" xmlns="http://www.w3.org/2000/svg" viewBox="0 0 92.8 28.4"><style>.st0{fill:#e5c18b}.st1{fill:#d79031}</style><path id="XMLID_3518_" class="st0" d="M6.4 4C5 4 4.1 4.7 4.1 6.7v3H0V7c0-4.4 2.2-7 6.5-7S13 2.5 13 7c0 8.7-8.7 12-8.7 16.6v.6h8.3v4H0v-3.4c0-8.2 8.7-9.5 8.7-17.5C8.7 4.6 7.8 4 6.4 4z"/><path id="XMLID_3520_" class="st0" d="M15.4 7c0-4.4 2.3-7 6.6-7s6.6 2.5 6.6 7v14.4c0 4.4-2.3 7-6.6 7s-6.6-2.5-6.6-7V7zm4.3 14.7c0 2 .9 2.7 2.3 2.7s2.3-.8 2.3-2.7v-15c0-2-.9-2.7-2.3-2.7s-2.3.8-2.3 2.7v15z"/><path id="XMLID_3523_" class="st1" d="M40.6 12.7h5.6v4h-5.6v11.5h-4.4V.3h11.5v4h-7.2v8.4z"/><path id="XMLID_3525_" class="st1" d="M49.9.3h4.4v23.8h7.2v4H49.9V.3z"/><path id="XMLID_3527_" class="st1" d="M67.7 12.3h6v4h-6v8.1h7.5v4H63.3V.6h11.9v4h-7.5v7.7z"/><path id="XMLID_3529_" class="st1" d="M92.5.3l-4.6 13.5 4.9 14.3h-4.6l-3.6-11-3.6 11h-4.1l4.9-14.3L77.2.3h4.5L85 10.5 88.4.3h4.1z"/></svg>