<svg 
 xmlns="http://www.w3.org/2000/svg"
 xmlns:xlink="http://www.w3.org/1999/xlink"
 width="35px" height="35px">
<path fill-rule="evenodd"  fill="rgb(236, 121, 2)"
 d="M24.042,31.532 C22.886,31.530 21.737,31.343 20.640,30.979 C19.203,33.470 16.541,35.000 13.665,34.989 C12.559,34.994 11.464,34.768 10.448,34.331 C6.370,32.570 4.492,27.838 6.252,23.760 C3.613,22.073 1.692,19.469 0.860,16.448 C-1.000,9.699 2.964,2.719 9.714,0.859 C16.464,-1.001 23.444,2.964 25.304,9.714 C30.830,10.350 35.000,15.031 34.996,20.593 C34.991,26.638 30.087,31.535 24.042,31.532 ZM13.665,33.837 C16.061,33.846 18.288,32.606 19.544,30.567 C19.519,30.555 19.494,30.540 19.469,30.529 C19.262,30.433 19.057,30.329 18.854,30.221 L18.672,30.120 C18.442,29.989 18.214,29.853 17.991,29.705 C16.468,28.689 15.223,27.311 14.368,25.695 C13.943,25.741 13.516,25.766 13.088,25.768 C11.056,25.783 9.052,25.290 7.259,24.332 C6.918,25.168 6.744,26.060 6.747,26.962 C6.758,30.771 9.856,33.849 13.665,33.837 ZM24.294,10.372 C23.040,5.201 18.412,1.561 13.092,1.559 C6.724,1.557 1.560,6.716 1.558,13.084 C1.558,19.451 6.720,24.614 13.088,24.614 C13.594,24.616 14.100,24.581 14.601,24.511 L14.623,24.509 C14.892,24.474 15.161,24.429 15.428,24.376 C16.244,24.207 17.039,23.950 17.799,23.608 C18.469,23.310 19.108,22.945 19.705,22.519 C22.783,20.363 24.616,16.843 24.618,13.084 C24.620,12.171 24.511,11.260 24.294,10.372 ZM25.581,10.913 C26.427,15.751 24.397,20.642 20.375,23.461 L20.372,23.461 C19.713,23.929 19.009,24.332 18.270,24.663 C18.016,24.776 17.757,24.878 17.497,24.975 C17.416,25.005 17.335,25.031 17.255,25.060 C17.068,25.125 16.880,25.188 16.691,25.242 C16.605,25.267 16.518,25.293 16.432,25.317 C16.220,25.374 16.007,25.426 15.794,25.474 C15.738,25.485 15.686,25.500 15.628,25.510 L15.588,25.519 C15.602,25.543 15.618,25.568 15.633,25.593 C15.798,25.869 15.975,26.136 16.165,26.395 C16.184,26.419 16.201,26.446 16.220,26.471 C16.418,26.733 16.630,26.985 16.854,27.223 C16.897,27.271 16.939,27.317 16.983,27.363 C17.206,27.594 17.440,27.817 17.685,28.027 C17.729,28.064 17.775,28.099 17.820,28.136 C18.079,28.354 18.349,28.557 18.630,28.745 C19.235,29.150 19.884,29.483 20.565,29.740 C21.675,30.165 22.854,30.381 24.042,30.378 C28.839,30.365 32.922,26.883 33.688,22.147 C34.552,16.806 30.922,11.778 25.581,10.913 ZM30.383,20.001 L32.689,20.001 L32.689,21.155 L30.383,21.155 L30.383,20.001 ZM29.244,16.910 L31.241,15.757 L31.818,16.755 L29.820,17.908 L29.244,16.910 ZM26.714,26.359 L27.712,25.784 L28.865,27.781 L27.867,28.357 L26.714,26.359 ZM26.712,14.800 L27.865,12.802 L28.864,13.378 L27.711,15.376 L26.712,14.800 ZM31.818,24.406 L31.242,25.404 L29.245,24.251 L29.821,23.253 L31.818,24.406 ZM23.465,26.918 L24.618,26.918 L24.618,29.225 L23.465,29.225 L23.465,26.918 ZM19.218,27.777 L20.370,25.782 L21.369,26.358 L20.216,28.356 L19.218,27.777 ZM18.858,21.704 C18.087,22.225 17.247,22.638 16.362,22.931 L16.359,22.931 C15.305,23.284 14.200,23.463 13.088,23.461 C12.267,23.463 11.449,23.362 10.651,23.165 L10.647,23.165 C9.742,22.950 8.871,22.610 8.059,22.156 L8.056,22.157 C6.613,21.355 5.381,20.222 4.463,18.852 C1.275,14.088 2.553,7.646 7.316,4.459 C12.079,1.270 18.524,2.548 21.711,7.309 C24.899,12.073 23.621,18.516 18.858,21.704 ZM13.082,3.855 C7.988,3.858 3.861,7.989 3.864,13.084 C3.871,16.436 5.691,19.521 8.621,21.147 C9.343,21.552 10.118,21.856 10.923,22.047 L10.929,22.047 C12.605,22.451 14.360,22.378 15.996,21.835 L16.000,21.835 C16.785,21.576 17.531,21.209 18.215,20.746 C20.777,19.033 22.314,16.154 22.312,13.071 C22.309,7.978 18.176,3.851 13.082,3.855 ZM15.394,19.424 L10.782,19.424 C10.464,19.424 10.206,19.166 10.206,18.850 C10.206,18.531 10.464,18.273 10.782,18.273 L12.512,18.273 L12.512,8.712 L10.901,10.321 C10.678,10.537 10.324,10.537 10.100,10.321 C9.872,10.101 9.865,9.736 10.086,9.506 L12.681,6.912 C12.789,6.805 12.935,6.743 13.088,6.743 C13.406,6.743 13.665,7.001 13.665,7.320 L13.665,18.273 L15.394,18.273 C15.713,18.273 15.971,18.531 15.971,18.850 C15.971,19.166 15.713,19.424 15.394,19.424 ZM13.665,31.532 C14.376,31.534 15.078,31.368 15.715,31.050 L16.229,32.083 C15.433,32.481 14.555,32.687 13.665,32.685 C10.482,32.681 7.903,30.102 7.899,26.918 L9.053,26.918 C9.055,29.464 11.119,31.528 13.665,31.532 Z"/>
</svg>