<svg 
 xmlns="http://www.w3.org/2000/svg"
 xmlns:xlink="http://www.w3.org/1999/xlink"
 width="25px" height="30px">
<path fill-rule="evenodd"  fill="rgb(242, 121, 26)"
 d="M24.696,26.640 C24.635,26.801 24.520,26.936 24.380,27.031 C24.197,27.149 19.825,30.000 12.509,30.000 C5.194,30.000 0.821,27.156 0.639,27.031 C0.493,26.936 0.383,26.801 0.322,26.640 C0.000,25.806 0.006,24.148 0.012,23.825 C0.012,23.820 0.012,23.814 0.012,23.807 C0.018,23.756 0.018,23.708 0.018,23.650 C0.055,22.427 0.134,19.552 2.773,18.625 C2.791,18.618 2.810,18.612 2.834,18.607 C5.589,17.893 7.857,16.278 7.881,16.259 C8.252,15.993 8.763,16.084 9.025,16.463 C9.286,16.844 9.195,17.365 8.824,17.632 C8.721,17.699 6.300,19.427 3.272,20.223 C1.855,20.739 1.697,22.285 1.654,23.702 C1.654,23.756 1.648,23.807 1.648,23.857 C1.636,24.414 1.679,25.278 1.776,25.776 C2.767,26.347 6.653,28.327 12.503,28.327 C18.378,28.327 22.239,26.353 23.224,25.782 C23.322,25.285 23.358,24.422 23.352,23.862 C23.346,23.814 23.346,23.763 23.346,23.708 C23.303,22.290 23.145,20.743 21.728,20.228 C18.700,19.433 16.280,17.712 16.176,17.639 C15.805,17.371 15.714,16.848 15.976,16.469 C16.237,16.090 16.748,15.998 17.119,16.265 C17.143,16.284 19.424,17.899 22.166,18.612 C22.185,18.618 22.209,18.625 22.227,18.633 C24.866,19.552 24.945,22.427 24.982,23.657 C24.982,23.714 24.988,23.763 24.988,23.814 C24.988,23.820 24.988,23.825 24.988,23.830 C24.994,24.155 25.000,25.813 24.696,26.640 ZM12.588,16.165 C12.570,16.165 12.546,16.165 12.527,16.165 C12.515,16.165 12.503,16.165 12.491,16.165 C12.454,16.165 12.424,16.165 12.394,16.165 C10.612,16.134 9.171,15.494 8.112,14.271 C5.771,11.574 6.160,6.953 6.203,6.511 C6.355,3.176 7.912,1.591 9.189,0.851 C10.460,0.111 11.785,-0.001 12.461,-0.001 L12.497,-0.001 C12.503,-0.001 12.515,-0.001 12.521,-0.001 L12.564,-0.001 C13.792,0.026 14.893,0.323 15.836,0.877 C17.101,1.616 18.633,3.199 18.785,6.511 C18.828,6.953 19.217,11.574 16.876,14.271 C15.811,15.494 14.370,16.134 12.588,16.165 ZM17.155,6.666 C17.149,6.654 17.149,6.634 17.149,6.616 C16.961,2.405 14.169,1.722 12.527,1.685 C12.509,1.685 12.491,1.685 12.479,1.685 L12.454,1.685 C11.129,1.685 8.033,2.162 7.833,6.616 C7.833,6.629 7.827,6.648 7.827,6.666 C7.820,6.704 7.407,10.947 9.335,13.159 C10.095,14.041 11.123,14.475 12.461,14.488 C12.473,14.488 12.479,14.488 12.491,14.488 C12.503,14.488 12.509,14.488 12.521,14.488 C13.865,14.475 14.887,14.041 15.653,13.159 C17.587,10.934 17.161,6.710 17.155,6.666 Z"/>
</svg>