<svg 
 xmlns="http://www.w3.org/2000/svg"
 xmlns:xlink="http://www.w3.org/1999/xlink"
 width="32px" height="32px">
<path fill-rule="evenodd"  fill="rgb(236, 121, 2)"
 d="M16.000,32.000 C7.164,32.000 -0.000,24.837 -0.000,15.998 C-0.000,7.164 7.164,-0.000 16.000,-0.000 C24.837,-0.000 32.000,7.164 32.000,15.998 C32.000,24.837 24.837,32.000 16.000,32.000 ZM16.000,1.280 C7.870,1.280 1.280,7.871 1.280,15.998 C1.280,24.129 7.870,30.720 16.000,30.720 C24.130,30.720 30.720,24.129 30.720,15.998 C30.720,7.871 24.130,1.280 16.000,1.280 ZM23.641,19.162 L19.161,19.162 L19.161,23.640 C19.158,24.267 18.653,24.770 18.028,24.774 L13.965,24.774 C13.341,24.770 12.836,24.267 12.832,23.640 L12.832,19.162 L8.353,19.162 C7.728,19.157 7.223,18.655 7.220,18.028 L7.220,13.964 C7.223,13.341 7.728,12.836 8.353,12.832 L12.832,12.832 L12.832,8.353 C12.836,7.728 13.341,7.224 13.965,7.220 L18.060,7.220 C18.685,7.224 19.190,7.728 19.193,8.353 L19.193,12.832 L23.673,12.832 C24.285,12.854 24.771,13.354 24.774,13.964 L24.774,18.028 C24.771,18.655 24.265,19.157 23.641,19.162 ZM23.526,14.112 L18.528,14.112 C18.174,14.112 17.888,13.825 17.888,13.471 L17.888,8.474 L14.112,8.474 L14.112,13.471 C14.112,13.825 13.826,14.112 13.472,14.112 L8.474,14.112 L8.474,17.888 L13.472,17.888 C13.826,17.888 14.112,18.174 14.112,18.527 L14.112,23.525 L17.888,23.525 L17.888,18.527 C17.888,18.174 18.174,17.888 18.528,17.888 L23.526,17.888 L23.526,14.112 Z"/>
</svg>