<svg class="svg-secure-v1" xmlns="http://www.w3.org/2000/svg" width="220" height="240" viewBox="0 0 22 24"><style>.svg-secure-v1 path{fill:#f0973c}</style><path d="M21.46 6.14c-.01-.65-.03-1.26-.03-1.85a.861.861 0 0 0-.89-.83A12.818 12.818 0 0 1 11.37.22a.921.921 0 0 0-1.24 0A12.818 12.818 0 0 1 .96 3.46a.861.861 0 0 0-.89.83c0 .59-.02 1.2-.03 1.85-.12 6.01-.29 14.24 10.42 17.71a.866.866 0 0 0 .58 0c10.71-3.47 10.54-11.7 10.42-17.71zM10.75 22.18c-9.18-3.13-9.04-9.97-8.92-16.01.01-.36.01-.71.02-1.06a14.389 14.389 0 0 0 8.9-3.15 14.389 14.389 0 0 0 8.9 3.15c.01.35.01.7.02 1.06.12 6.04.26 12.88-8.92 16.01zm3.08-13.15l-4.32 4.04-1.84-1.72a.926.926 0 0 0-1.26 0 .794.794 0 0 0 0 1.18l2.47 2.32a.928.928 0 0 0 .63.25.972.972 0 0 0 .64-.25l4.94-4.64a.794.794 0 0 0 0-1.18.926.926 0 0 0-1.26 0z"/></svg>