<svg xmlns="http://www.w3.org/2000/svg" width="32" height="32" viewBox="0 0 32 32"><defs><style>.cls-1{fill:#ec7902;fill-rule:evenodd}</style></defs><path id="Forma_1_copy_2" data-name="Forma 1 copy 2" class="cls-1" d="M1373.67 40.832h-4.48v-4.479a1.137 1.137 0 0 0-1.13-1.133h-4.09a1.146 1.146 0 0 0-1.14 1.133v4.479h-4.48a1.137 1.137 0 0 0-1.13 1.132v4.063a1.137 1.137 0 0 0 1.13 1.134h4.48v4.479a1.145 1.145 0 0 0 1.14 1.134h4.06a1.137 1.137 0 0 0 1.13-1.134v-4.478h4.48a1.131 1.131 0 0 0 1.13-1.134v-4.064a1.139 1.139 0 0 0-1.1-1.132zm-.14 5.056h-5a.635.635 0 0 0-.64.639v5h-3.78v-5a.635.635 0 0 0-.64-.639h-5v-3.776h5a.637.637 0 0 0 .64-.641v-5h3.78v5a.637.637 0 0 0 .64.641h5v3.776zM1366 28a16 16 0 1 0 16 16 16 16 0 0 0-16-16zm0 30.72A14.72 14.72 0 1 1 1380.72 44 14.72 14.72 0 0 1 1366 58.72z" transform="translate(-1350 -28)"/></svg>