<svg xmlns="http://www.w3.org/2000/svg" width="34.59" height="34.625" viewBox="0 0 34.59 34.625"><defs><style>.cls-1{fill:#ec7902;fill-rule:evenodd}</style></defs><path id="Forma_1_copy" data-name="Forma 1 copy" class="cls-1" d="M1111.36 48.931a10.041 10.041 0 0 0 2.5-1.227 10.388 10.388 0 1 0-10.8.453 9.981 9.981 0 0 0 2.59 1.009 10.1 10.1 0 0 0 2.44.3 10.234 10.234 0 0 0 3.27-.535zm-5.44-.884a8.947 8.947 0 0 1-2.3-.9 9.218 9.218 0 1 1 9.6-.4 9.025 9.025 0 0 1-2.22 1.089 9.241 9.241 0 0 1-5.07.212h-.01zm14.38-12.334a12.675 12.675 0 1 0-19.05 14.047 8.065 8.065 0 0 0 14.39 7.219 10.942 10.942 0 1 0 4.66-21.265zm-23.74 3.371a11.527 11.527 0 0 1 22.73-2.712 11.269 11.269 0 0 1 .33 2.712 11.537 11.537 0 0 1-4.91 9.434 11.016 11.016 0 0 1-1.91 1.089 11.494 11.494 0 0 1-2.37.769c-.27.053-.54.1-.81.133h-.02a10.746 10.746 0 0 1-1.51.1 11.529 11.529 0 0 1-11.53-11.525zm12.1 20.753a6.894 6.894 0 0 1-6.91-6.875 6.78 6.78 0 0 1 .51-2.63 12.309 12.309 0 0 0 7.11 1.362 10.984 10.984 0 0 0 3.62 4.01c.22.148.45.284.68.415l.18.1c.21.109.41.213.62.309l.07.037a6.863 6.863 0 0 1-5.88 3.272zm10.38-3.459a9.559 9.559 0 0 1-3.47-.638 9.2 9.2 0 0 1-1.94-.995 9.684 9.684 0 0 1-.81-.609c-.05-.038-.09-.072-.14-.11-.24-.21-.47-.432-.7-.663a1.81 1.81 0 0 0-.13-.14 10.68 10.68 0 0 1-.63-.753.331.331 0 0 1-.05-.076q-.285-.388-.54-.8c-.01-.026-.03-.05-.04-.074l.04-.009c.06-.01.11-.026.16-.036.22-.047.43-.1.64-.156.09-.025.17-.05.26-.076.19-.054.38-.117.57-.182.08-.028.16-.055.24-.085.26-.1.52-.2.77-.312a12.267 12.267 0 0 0 2.1-1.2 12.641 12.641 0 0 0 5.21-12.547 9.795 9.795 0 0 1-1.54 19.461zm-10.38 1.154a4.626 4.626 0 0 1-4.61-4.613h-1.15a5.765 5.765 0 0 0 8.33 5.164l-.52-1.033a4.516 4.516 0 0 1-2.05.482zm9.81-4.613h1.15v2.307h-1.15v-2.308zm-3.25 1.437l-1-.578 1.15-2 1 .577zm7.65 0l-1.16-2 1-.575 1.16 2zm3.37-2.953l-2-1.153.58-1 2 1.152zm-.86-5.4h2.31v1.154h-2.31V46zm.86-4.244l.58 1-2 1.153-.58-1zm-3.53-.381l-1-.576 1.16-2 .99.577zm-11.74 3.474a.578.578 0 0 0-.58-.577h-1.73V33.32a.57.57 0 0 0-.57-.578.6.6 0 0 0-.41.169l-2.59 2.594a.575.575 0 0 0 .81.815l1.61-1.609v9.561h-1.73a.575.575 0 0 0 0 1.15h4.61a.578.578 0 0 0 .58-.572z" transform="translate(-1095.41 -26.375)"/></svg>