<svg xmlns="http://www.w3.org/2000/svg" width="20.75" height="23.813" viewBox="0 0 20.75 23.813"><defs><style>.cls-1{fill:#87ac13;fill-rule:evenodd}</style></defs><path class="cls-1" d="M17.76 15.013a2.345 2.345 0 0 0-1.59-.981 2.449 2.449 0 0 0-1.81.561l-1.77 1.378c-.12-.087-.25-.17-.36-.248a6.085 6.085 0 0 1-.47-.329 17.144 17.144 0 0 1-3.65-4.24 9.954 9.954 0 0 1-1.09-2.287c.45-.325.88-.665 1.3-1 .15-.12.31-.249.47-.37a2.29 2.29 0 0 0 .42-3.447L8.02 2.521c-.14-.174-.28-.353-.41-.531-.26-.347-.54-.7-.83-1.043A2.345 2.345 0 0 0 5.2.009a2.506 2.506 0 0 0-1.8.524l-.01.009-1.91 1.5A3.652 3.652 0 0 0 .11 4.224a8.806 8.806 0 0 0 .18 3.781 21.762 21.762 0 0 0 3.05 6.825 23.587 23.587 0 0 0 7.09 7.075 12.237 12.237 0 0 0 4.24 1.836c.11.016.22.034.32.046a3.815 3.815 0 0 0 3.04-.88.072.072 0 0 1 .02-.027 11.632 11.632 0 0 1 .99-.792c.24-.178.48-.364.73-.562a2.508 2.508 0 0 0 .96-1.634 2.372 2.372 0 0 0-.56-1.806zm1.15 5.47c-.22.183-.45.35-.69.532-.36.269-.73.551-1.09.877a2.417 2.417 0 0 1-1.97.565c-.08-.011-.16-.019-.23-.032a10.941 10.941 0 0 1-3.76-1.646 22.263 22.263 0 0 1-6.68-6.665 20.55 20.55 0 0 1-2.87-6.416 7.14 7.14 0 0 1-.17-3.191 2.28 2.28 0 0 1 .87-1.4l1.92-1.491a1.146 1.146 0 0 1 .8-.259 1.065 1.065 0 0 1 .69.438c0 .008.01.01.01.018.27.319.53.649.79 1 .14.179.28.357.42.544l1.2 1.525a.958.958 0 0 1-.19 1.541c-.17.132-.32.261-.49.38-.47.375-.92.728-1.4 1.063a.077.077 0 0 0-.03.019 1.022 1.022 0 0 0-.4 1.1c0 .019.01.034.01.049a11.017 11.017 0 0 0 1.29 2.821h.01a18.327 18.327 0 0 0 3.94 4.576 6.045 6.045 0 0 0 .58.409c.17.113.33.218.46.325a.417.417 0 0 0 .06.04 1.057 1.057 0 0 0 .48.186 1.069 1.069 0 0 0 .8-.251l1.92-1.493a1.154 1.154 0 0 1 .8-.285 1.055 1.055 0 0 1 .68.454l.01.008 2.42 3.087a1 1 0 0 1-.19 1.572z"/></svg>