<svg xmlns="http://www.w3.org/2000/svg" width="25" height="30" viewBox="0 0 25 30"><defs><style>.cls-1{fill:#f2791a;fill-rule:evenodd}</style></defs><path class="cls-1" d="M12.39 16.165h.2a5.576 5.576 0 0 0 4.29-1.893c2.34-2.7 1.95-7.318 1.91-7.76C18.63 3.2 17.1 1.617 15.84.878A6.72 6.72 0 0 0 12.56 0h-.1a6.656 6.656 0 0 0-3.27.852c-1.28.74-2.83 2.325-2.99 5.66-.04.442-.43 5.063 1.91 7.76a5.539 5.539 0 0 0 4.28 1.893zm-4.56-9.5v-.05c.2-4.454 3.3-4.931 4.62-4.931h.08c1.64.037 4.43.72 4.62 4.932a.082.082 0 0 0 .01.05c0 .044.43 4.268-1.51 6.493a3.927 3.927 0 0 1-3.13 1.329h-.06a3.941 3.941 0 0 1-3.13-1.329C7.41 10.947 7.82 6.7 7.83 6.666zm17.16 17.164v-.015c0-.05-.01-.1-.01-.156-.03-1.231-.11-4.105-2.75-5.025a.54.54 0 0 1-.06-.021 17.2 17.2 0 0 1-5.05-2.346.805.805 0 0 0-1.14.2.844.844 0 0 0 .2 1.17 18.714 18.714 0 0 0 5.55 2.59c1.42.515 1.57 2.062 1.62 3.48v.154a10.842 10.842 0 0 1-.13 1.92 23.822 23.822 0 0 1-21.44-.005 10.866 10.866 0 0 1-.13-1.92V23.7c.05-1.417.2-2.963 1.62-3.48a18.91 18.91 0 0 0 5.55-2.59.835.835 0 0 0 .2-1.17.807.807 0 0 0-1.14-.2 17.075 17.075 0 0 1-5.05 2.348.473.473 0 0 0-.06.018c-2.64.927-2.72 3.8-2.75 5.025a.8.8 0 0 1-.01.157v.018a10.034 10.034 0 0 0 .31 2.814.785.785 0 0 0 .32.391c.18.125 4.55 2.97 11.87 2.97a22.722 22.722 0 0 0 11.87-2.97.841.841 0 0 0 .32-.391 10.607 10.607 0 0 0 .29-2.81z"/></svg>