<svg xmlns="http://www.w3.org/2000/svg" width="25" height="30" viewBox="0 0 25 30">
<defs>
    <style>
      .cls-1 {
        fill: #f2791a;
        fill-rule: evenodd;
      }
    </style>
  </defs>
  <path class="cls-1" d="M1663.39,49.165h0.2a5.576,5.576,0,0,0,4.29-1.893c2.34-2.7,1.95-7.318,1.91-7.76-0.16-3.312-1.69-4.895-2.95-5.634a6.72,6.72,0,0,0-3.28-.878h-0.1a6.656,6.656,0,0,0-3.27.852c-1.28.74-2.83,2.325-2.99,5.66-0.04.442-.43,5.063,1.91,7.76A5.539,5.539,0,0,0,1663.39,49.165Zm-4.56-9.5v-0.05c0.2-4.454,3.3-4.931,4.62-4.931h0.08c1.64,0.037,4.43.72,4.62,4.932a0.082,0.082,0,0,0,.01.05c0,0.044.43,4.268-1.51,6.493a3.927,3.927,0,0,1-3.13,1.329h-0.06a3.941,3.941,0,0,1-3.13-1.329C1658.41,43.947,1658.82,39.7,1658.83,39.666Zm17.16,17.164V56.814c0-.05-0.01-0.1-0.01-0.156-0.03-1.231-.11-4.105-2.75-5.025a0.54,0.54,0,0,1-.06-0.021,17.2,17.2,0,0,1-5.05-2.346,0.805,0.805,0,0,0-1.14.2,0.844,0.844,0,0,0,.2,1.17,18.714,18.714,0,0,0,5.55,2.59c1.42,0.515,1.57,2.062,1.62,3.48v0.154a10.842,10.842,0,0,1-.13,1.92,23.822,23.822,0,0,1-21.44-.005,10.866,10.866,0,0,1-.13-1.92V56.7c0.05-1.417.2-2.963,1.62-3.48a18.91,18.91,0,0,0,5.55-2.59,0.835,0.835,0,0,0,.2-1.17,0.807,0.807,0,0,0-1.14-.2,17.075,17.075,0,0,1-5.05,2.348,0.473,0.473,0,0,0-.06.018c-2.64.927-2.72,3.8-2.75,5.025a0.8,0.8,0,0,1-.01.157v0.018a10.034,10.034,0,0,0,.31,2.814,0.785,0.785,0,0,0,.32.391c0.18,0.125,4.55,2.97,11.87,2.97a22.722,22.722,0,0,0,11.87-2.97,0.841,0.841,0,0,0,.32-0.391A10.607,10.607,0,0,0,1675.99,56.83Z" transform="translate(-1651 -33)"/>
</svg>
