<svg xmlns="http://www.w3.org/2000/svg" width="32" height="32" viewBox="0 0 32 32">
<defs>
    <style>
      .cls-1 {
        fill: #ec7902;
        fill-rule: evenodd;
      }
    </style>
  </defs>
  <path id="Forma_1_copy_2" data-name="Forma 1 copy 2" class="cls-1" d="M1373.67,40.832h-4.48V36.353a1.137,1.137,0,0,0-1.13-1.133h-4.09a1.146,1.146,0,0,0-1.14,1.133v4.479h-4.48a1.137,1.137,0,0,0-1.13,1.132v4.063a1.137,1.137,0,0,0,1.13,1.134h4.48V51.64a1.145,1.145,0,0,0,1.14,1.134h4.06a1.137,1.137,0,0,0,1.13-1.134V47.162h4.48a1.131,1.131,0,0,0,1.13-1.134V41.964A1.139,1.139,0,0,0,1373.67,40.832Zm-0.14,5.056h-5a0.635,0.635,0,0,0-.64.639v5h-3.78v-5a0.635,0.635,0,0,0-.64-0.639h-5V42.112h5a0.637,0.637,0,0,0,.64-0.641v-5h3.78v5a0.637,0.637,0,0,0,.64.641h5v3.776ZM1366,28a16,16,0,1,0,16,16A16,16,0,0,0,1366,28Zm0,30.72A14.72,14.72,0,1,1,1380.72,44,14.72,14.72,0,0,1,1366,58.72Z" transform="translate(-1350 -28)"/>
</svg>
