<svg xmlns="http://www.w3.org/2000/svg" width="20.75" height="23.813" viewBox="0 0 20.75 23.813">
  <metadata><?xpacket begin="﻿" id="W5M0MpCehiHzreSzNTczkc9d"?>
<x:xmpmeta xmlns:x="adobe:ns:meta/" x:xmptk="Adobe XMP Core 5.6-c138 79.159824, 2016/09/14-01:09:01        ">
   <rdf:RDF xmlns:rdf="http://www.w3.org/1999/02/22-rdf-syntax-ns#">
      <rdf:Description rdf:about=""/>
   </rdf:RDF>
</x:xmpmeta>
                                                                                                    
                                                                                                    
                                                                                                    
                                                                                                    
                                                                                                    
                                                                                                    
                                                                                                    
                                                                                                    
                                                                                                    
                                                                                                    
                                                                                                    
                                                                                                    
                                                                                                    
                                                                                                    
                                                                                                    
                                                                                                    
                                                                                                    
                                                                                                    
                                                                                                    
                                                                                                    
                           
<?xpacket end="w"?></metadata>
<defs>
    <style>
      .cls-1 {
        fill: #87ac13;
        fill-rule: evenodd;
      }
    </style>
  </defs>
  <path class="cls-1" d="M1661.95,485.075a2.345,2.345,0,0,0-1.59-.981,2.449,2.449,0,0,0-1.81.561l-1.77,1.378c-0.12-.087-0.25-0.17-0.36-0.248-0.17-.111-0.33-0.217-0.47-0.329a17.144,17.144,0,0,1-3.65-4.24,9.954,9.954,0,0,1-1.09-2.287c0.45-.325.88-0.665,1.3-1,0.15-.12.31-0.249,0.47-0.37a2.29,2.29,0,0,0,.42-3.447l-1.19-1.529c-0.14-.174-0.28-0.353-0.41-0.531-0.26-.347-0.54-0.7-0.83-1.043a2.345,2.345,0,0,0-1.58-.938,2.506,2.506,0,0,0-1.8.524s0,0-.01.009l-1.91,1.5a3.652,3.652,0,0,0-1.37,2.182,8.806,8.806,0,0,0,.18,3.781,21.762,21.762,0,0,0,3.05,6.825,23.587,23.587,0,0,0,7.09,7.075,12.237,12.237,0,0,0,4.24,1.836c0.11,0.016.22,0.034,0.32,0.046a3.815,3.815,0,0,0,3.04-.88,0.072,0.072,0,0,1,.02-0.027,11.632,11.632,0,0,1,.99-0.792c0.24-.178.48-0.364,0.73-0.562a2.508,2.508,0,0,0,.96-1.634,2.372,2.372,0,0,0-.56-1.806Zm1.15,5.47h0c-0.22.183-.45,0.35-0.69,0.532-0.36.269-.73,0.551-1.09,0.877a2.417,2.417,0,0,1-1.97.565c-0.08-.011-0.16-0.019-0.23-0.032a10.941,10.941,0,0,1-3.76-1.646,22.263,22.263,0,0,1-6.68-6.665,20.55,20.55,0,0,1-2.87-6.416,7.14,7.14,0,0,1-.17-3.191,2.28,2.28,0,0,1,.87-1.4l1.92-1.491a1.146,1.146,0,0,1,.8-0.259,1.065,1.065,0,0,1,.69.438c0,0.008.01,0.01,0.01,0.018,0.27,0.319.53,0.649,0.79,1,0.14,0.179.28,0.357,0.42,0.544l1.2,1.525a0.958,0.958,0,0,1-.19,1.541c-0.17.132-.32,0.261-0.49,0.38-0.47.375-.92,0.728-1.4,1.063a0.077,0.077,0,0,0-.03.019,1.022,1.022,0,0,0-.4,1.1c0,0.019.01,0.034,0.01,0.049a11.017,11.017,0,0,0,1.29,2.821l0.01,0a18.327,18.327,0,0,0,3.94,4.576,6.045,6.045,0,0,0,.58.409c0.17,0.113.33,0.218,0.46,0.325a0.417,0.417,0,0,0,.06.04,1.057,1.057,0,0,0,.48.186,1.069,1.069,0,0,0,.8-0.251l1.92-1.493a1.154,1.154,0,0,1,.8-0.285,1.055,1.055,0,0,1,.68.454s0,0,.01.008l2.42,3.087A1,1,0,0,1,1663.1,490.545Z" transform="translate(-1644.19 -470.062)"/>
</svg>
