<svg xmlns="http://www.w3.org/2000/svg" width="34.59" height="34.625" viewBox="0 0 34.59 34.625">
<defs>
    <style>
      .cls-1 {
        fill: #ec7902;
        fill-rule: evenodd;
      }
    </style>
  </defs>
  <path id="Forma_1_copy" data-name="Forma 1 copy" class="cls-1" d="M1111.36,48.931h0a10.041,10.041,0,0,0,2.5-1.227,10.388,10.388,0,1,0-10.8.453h0a9.981,9.981,0,0,0,2.59,1.009h0a10.1,10.1,0,0,0,2.44.3A10.234,10.234,0,0,0,1111.36,48.931Zm-5.44-.884a8.947,8.947,0,0,1-2.3-.9,9.218,9.218,0,1,1,9.6-.4,9.025,9.025,0,0,1-2.22,1.089h0a9.241,9.241,0,0,1-5.07.212h-0.01Zm14.38-12.334a12.675,12.675,0,1,0-19.05,14.047,8.065,8.065,0,0,0,14.39,7.219A10.942,10.942,0,1,0,1120.3,35.714Zm-23.74,3.371a11.527,11.527,0,0,1,22.73-2.712,11.269,11.269,0,0,1,.33,2.712,11.537,11.537,0,0,1-4.91,9.434,11.016,11.016,0,0,1-1.91,1.089,11.494,11.494,0,0,1-2.37.769c-0.27.053-.54,0.1-0.81,0.133l-0.02,0a10.746,10.746,0,0,1-1.51.1A11.529,11.529,0,0,1,1096.56,39.084Zm12.1,20.753a6.894,6.894,0,0,1-6.91-6.875,6.78,6.78,0,0,1,.51-2.63,12.309,12.309,0,0,0,7.11,1.362,10.984,10.984,0,0,0,3.62,4.01c0.22,0.148.45,0.284,0.68,0.415l0.18,0.1c0.21,0.109.41,0.213,0.62,0.309,0.02,0.011.05,0.026,0.07,0.037A6.863,6.863,0,0,1,1108.66,59.837Zm10.38-3.459h0a9.559,9.559,0,0,1-3.47-.638,9.2,9.2,0,0,1-1.94-.995,9.684,9.684,0,0,1-.81-0.609c-0.05-.038-0.09-0.072-0.14-0.11-0.24-.21-0.47-0.432-0.7-0.663a1.81,1.81,0,0,0-.13-0.14c-0.22-.239-0.43-0.491-0.63-0.753a0.331,0.331,0,0,1-.05-0.076q-0.285-.388-0.54-0.8c-0.01-.026-0.03-0.05-0.04-0.074l0.04-.009c0.06-.01.11-0.026,0.16-0.036,0.22-.047.43-0.1,0.64-0.156,0.09-.025.17-0.05,0.26-0.076,0.19-.054.38-0.117,0.57-0.182,0.08-.028.16-0.055,0.24-0.085,0.26-.1.52-0.2,0.77-0.312a12.267,12.267,0,0,0,2.1-1.2h0a12.641,12.641,0,0,0,5.21-12.547A9.795,9.795,0,0,1,1119.04,56.378Zm-10.38,1.154a4.626,4.626,0,0,1-4.61-4.613h-1.15a5.765,5.765,0,0,0,8.33,5.164l-0.52-1.033A4.516,4.516,0,0,1,1108.66,57.532Zm9.81-4.613h1.15v2.307h-1.15V52.918Zm-3.25,1.437-1-.578,1.15-2,1,0.577Zm7.65,0-1.16-2,1-.575,1.16,2Zm3.37-2.953-2-1.153,0.58-1,2,1.152Zm-0.86-5.4h2.31v1.154h-2.31V46Zm0.86-4.244,0.58,1-2,1.153-0.58-1Zm-3.53-.381-1-.576,1.16-2,0.99,0.577Zm-11.74,3.474a0.578,0.578,0,0,0-.58-0.577h-1.73V33.32a0.57,0.57,0,0,0-.57-0.578,0.6,0.6,0,0,0-.41.169l-2.59,2.594a0.575,0.575,0,0,0,.81.815l1.61-1.609v9.561h-1.73a0.575,0.575,0,0,0,0,1.15h4.61A0.578,0.578,0,0,0,1110.97,44.85Z" transform="translate(-1095.41 -26.375)"/>
</svg>
