<svg xmlns="http://www.w3.org/2000/svg" xmlns:xlink="http://www.w3.org/1999/xlink" width="19" height="23" viewBox="0 0 19 23"><defs><path id="7qr7a" d="M779.165 12627.943c-1.779-2.071-1.483-5.615-1.45-5.952.115-2.555 1.298-3.772 2.269-4.339.966-.565 1.973-.653 2.486-.653h.079c.933.022 1.77.25 2.486.675.962.568 2.126 1.779 2.242 4.317.032.337.328 3.881-1.452 5.952-.808.936-1.904 1.424-3.258 1.451h-.148c-1.354-.027-2.45-.515-3.253-1.45zm.93-.857c.577.677 1.358 1.013 2.375 1.023h.046c1.022-.01 1.798-.347 2.38-1.023 1.47-1.7 1.147-4.943 1.142-4.976-.005-.009-.005-.025-.005-.037-.143-3.23-2.264-3.755-3.512-3.781h-.056c-1.007 0-3.36.37-3.512 3.78 0 .01-.005.024-.005.038-.004.027-.319 3.281 1.147 4.976zm11.674 10.338a.625.625 0 0 1-.24.3c-.14.09-3.462 2.276-9.022 2.276-5.56 0-8.883-2.182-9.022-2.276a.6.6 0 0 1-.24-.3c-.245-.638-.24-1.908-.236-2.157v-.015c.005-.035.005-.075.005-.118.028-.942.088-3.145 2.094-3.855.013-.002.027-.009.046-.012 2.093-.551 3.817-1.787 3.836-1.802a.609.609 0 0 1 .869.16.65.65 0 0 1-.153.89c-.078.054-1.918 1.38-4.22 1.989-1.076.397-1.196 1.584-1.229 2.665 0 .048-.004.083-.004.12-.01.427.023 1.092.097 1.47.753.443 3.706 1.958 8.152 1.958 4.465 0 7.4-1.51 8.149-1.95.073-.38.101-1.043.097-1.472-.005-.038-.005-.075-.005-.118-.032-1.086-.153-2.27-1.23-2.67-2.301-.61-4.14-1.93-4.22-1.987a.653.653 0 0 1-.152-.894.613.613 0 0 1 .87-.155c.018.015 1.751 1.25 3.835 1.8.014.006.033.008.047.013 2.005.705 2.065 2.909 2.093 3.852 0 .043.005.084.005.121v.015c.005.247.01 1.517-.222 2.152z"/></defs><g><g transform="translate(-773 -12617)"><use fill="#87ac13" xlink:href="#7qr7a"/></g></g></svg>