<svg xmlns="http://www.w3.org/2000/svg" xmlns:xlink="http://www.w3.org/1999/xlink" width="24" height="27" viewBox="0 0 24 27"><defs><path id="r6n2a" d="M1545.054 12627.377a.931.931 0 0 0 0-1.319.939.939 0 0 0-1.322 0l-4.946 4.928a4.335 4.335 0 0 0-1.299 3.11c0 1.181.456 2.271 1.3 3.113 1.731 1.724 4.535 1.724 6.244 0l11.168-11.128a6.092 6.092 0 0 0 1.8-4.337 6.09 6.09 0 0 0-1.8-4.338 6.178 6.178 0 0 0-8.729 0l-11.145 11.105a7.818 7.818 0 0 0-2.325 5.586c0 2.113.82 4.11 2.325 5.585a7.875 7.875 0 0 0 5.607 2.318c2.12 0 4.125-.818 5.606-2.318l4.946-4.927a.929.929 0 0 0 0-1.316.939.939 0 0 0-1.322 0l-4.946 4.926a6.044 6.044 0 0 1-4.284 1.774 6.044 6.044 0 0 1-4.285-1.774 5.995 5.995 0 0 1-1.778-4.268c0-1.612.638-3.133 1.778-4.268l11.145-11.105a4.242 4.242 0 0 1 3.031-1.248c1.14 0 2.234.453 3.032 1.248a4.218 4.218 0 0 1 1.253 3.02 4.277 4.277 0 0 1-1.253 3.021l-11.168 11.125c-.98.978-2.599.978-3.602 0a2.517 2.517 0 0 1 0-3.587z"/></defs><g><g transform="translate(-1534 -12615)"><use fill="#87ac13" xlink:href="#r6n2a"/></g></g></svg>