<?xml version="1.0" encoding="utf-8"?>
<!-- Generator: Adobe Illustrator 23.0.1, SVG Export Plug-In . SVG Version: 6.00 Build 0)  -->
<svg version="1.1" id="titles" xmlns="http://www.w3.org/2000/svg" xmlns:xlink="http://www.w3.org/1999/xlink" x="0px" y="0px"
	 viewBox="0 0 92.8 28.4" style="enable-background:new 0 0 92.8 28.4;" xml:space="preserve">
<style type="text/css">
	.st0{fill:#E5C18B;}
	.st1{fill:#D79031;}
</style>
<path id="XMLID_3518_" class="st0" d="M6.4,4C5,4,4.1,4.7,4.1,6.7v3H0V7c0-4.4,2.2-7,6.5-7S13,2.5,13,7c0,8.7-8.7,12-8.7,16.6
	c0,0.2,0,0.4,0,0.6h8.3v4H0v-3.4c0-8.2,8.7-9.5,8.7-17.5C8.7,4.6,7.8,4,6.4,4z"/>
<path id="XMLID_3520_" class="st0" d="M15.4,7c0-4.4,2.3-7,6.6-7s6.6,2.5,6.6,7v14.4c0,4.4-2.3,7-6.6,7s-6.6-2.5-6.6-7V7z
	 M19.7,21.7c0,2,0.9,2.7,2.3,2.7c1.4,0,2.3-0.8,2.3-2.7v-15c0-2-0.9-2.7-2.3-2.7c-1.4,0-2.3,0.8-2.3,2.7V21.7z"/>
<path id="XMLID_3523_" class="st1" d="M40.6,12.7h5.6v4h-5.6v11.5h-4.4V0.3h11.5v4h-7.2V12.7z"/>
<path id="XMLID_3525_" class="st1" d="M49.9,0.3h4.4v23.8h7.2v4H49.9V0.3z"/>
<path id="XMLID_3527_" class="st1" d="M67.7,12.3h6v4h-6v8.1h7.5v4H63.3V0.6h11.9v4h-7.5V12.3z"/>
<path id="XMLID_3529_" class="st1" d="M92.5,0.3l-4.6,13.5l4.9,14.3h-4.6l-3.6-11l-3.6,11h-4.1l4.9-14.3L77.2,0.3h4.5l3.3,10.2
	l3.4-10.2H92.5z"/>
</svg>
